# xmcd
#
# Track frame offsets:
#	150
#	14018
#	25747
#	35645
#	47839
#	59972
#	75778
#	87810
#	99269
#	110228
#	123387
#	133431
#	144646
#	157188
#	167895
#	182172
#	197104
#	210461
#	221010
#	235641
#
# Disc length: 3373 seconds
#
# Revision: 1
# Processed by: cddbd v1.5.2PL0 Copyright (c) Steve Scherf et al.
# Submitted via: audiograbber 1.83.01
#
DISCID=280d2b14
DTITLE=Spirit of Soul - Spirit of Soul - CD 2
DYEAR=2014
DGENRE=Soul
TTITLE0=Etta James - I just want to make love to you
TTITLE1=Sam Cooke - Chain gang
TTITLE2=Ike and Tina Turner - I'm jealous
TTITLE3=Ben E. King - What a difference a day made
TTITLE4=Aaron Neville - Tell it like it is
TTITLE5=Screamin' Jay Hawkins - I put a spell on you
TTITLE6=Brook Benton - Hotel happiness
TTITLE7=James Brown - You're mine, you're mine
TTITLE8=Sam and Dave - I need love
TTITLE9=The Temptations - (You're my) Dream come true
TTITLE10=The Impressions - Grow closer together
TTITLE11=The Marvelettes - Please Mr. Postman
TTITLE12=Jerry Butler - He will break your heart
TTITLE13=Eddie Holland - Jamie
TTITLE14=The Cardinals - Shouldn't I know
TTITLE15=Jackie Wilson - Indian love call
TTITLE16=La Vern Baker - Play it fair
TTITLE17=Carla Thomas - Gee Whiz ! (Look at his eyes)
TTITLE18=Aretha Franklin - Try a little tenderness
TTITLE19=Booker T. and the MG's - Behave yourself
EXTD=
EXTT0=
EXTT1=
EXTT2=
EXTT3=
EXTT4=
EXTT5=
EXTT6=
EXTT7=
EXTT8=
EXTT9=
EXTT10=
EXTT11=
EXTT12=
EXTT13=
EXTT14=
EXTT15=
EXTT16=
EXTT17=
EXTT18=
EXTT19=
PLAYORDER=
